<svg xmlns="http://www.w3.org/2000/svg" width="400" height="400" viewBox="0 0 400 400" fill="none">
  <defs>
    <linearGradient id="bg" x1="0" y1="0" x2="0" y2="400" gradientUnits="userSpaceOnUse">
      <stop offset="0" stop-color="#252525"/>
      <stop offset="1" stop-color="#000000"/>
    </linearGradient>

    <linearGradient id="panel" x1="0" y1="0" x2="400" y2="400" gradientUnits="userSpaceOnUse">
      <stop offset="0" stop-color="#D8D8D8"/>
      <stop offset="1" stop-color="#FAFAFA"/>
    </linearGradient>

    <filter id="shadow" x="-30%" y="-30%" width="160%" height="160%" color-interpolation-filters="sRGB">
      <feDropShadow dx="0" dy="10" stdDeviation="10" flood-color="#000000" flood-opacity="0.55"/>
    </filter>
  </defs>

  <!-- Background -->
  <rect width="400" height="400" fill="url(#bg)"/>

  <!-- Main mark -->
  <path d="M238.0,322.5 L156.0,322.5 L150.0,319.5 L146.5,316.0 L146.5,315.0 L144.5,313.0 L144.5,312.0 L142.5,310.0 L142.5,309.0 L140.5,307.0 L140.5,306.0 L138.5,304.0 L138.5,303.0 L136.5,301.0 L136.5,300.0 L134.5,298.0 L134.5,297.0 L132.5,295.0 L132.5,294.0 L130.5,292.0 L130.5,291.0 L128.5,289.0 L128.5,288.0 L126.5,286.0 L126.5,285.0 L124.5,283.0 L124.5,282.0 L122.5,280.0 L122.5,279.0 L120.5,277.0 L120.5,276.0 L118.5,274.0 L118.5,273.0 L116.5,271.0 L112.5,264.0 L109.5,261.0 L109.5,260.0 L107.5,258.0 L107.5,257.0 L105.5,255.0 L105.5,254.0 L103.5,252.0 L103.5,251.0 L101.5,249.0 L101.5,248.0 L99.5,246.0 L99.5,245.0 L97.5,243.0 L97.5,242.0 L95.5,240.0 L95.5,239.0 L93.5,237.0 L93.5,236.0 L91.5,234.0 L91.5,233.0 L89.5,231.0 L89.5,230.0 L87.5,228.0 L87.5,227.0 L85.5,225.0 L85.5,224.0 L83.5,222.0 L83.5,221.0 L81.5,219.0 L81.5,218.0 L79.5,216.0 L79.5,215.0 L77.5,213.0 L77.5,212.0 L75.5,210.0 L75.5,209.0 L73.5,207.0 L73.5,206.0 L71.5,204.0 L71.5,203.0 L69.5,201.0 L65.5,194.0 L62.5,191.0 L62.5,190.0 L60.5,188.0 L60.5,187.0 L53.5,177.0 L53.5,174.0 L52.5,173.0 L52.5,88.0 L53.5,87.0 L53.5,85.0 L58.0,79.5 L64.0,76.5 L146.0,76.5 L147.0,77.5 L151.0,78.5 L155.5,83.0 L159.5,90.0 L162.5,93.0 L162.5,94.0 L164.5,96.0 L164.5,97.0 L166.5,99.0 L166.5,100.0 L168.5,102.0 L168.5,103.0 L170.5,105.0 L170.5,106.0 L172.5,108.0 L172.5,109.0 L174.5,111.0 L174.5,112.0 L176.5,114.0 L176.5,115.0 L178.5,117.0 L178.5,118.0 L180.5,120.0 L180.5,121.0 L182.5,123.0 L186.5,130.0 L189.5,133.0 L189.5,134.0 L191.5,136.0 L191.5,137.0 L193.5,139.0 L193.5,140.0 L195.5,142.0 L195.5,143.0 L197.5,145.0 L197.5,146.0 L199.5,148.0 L199.5,149.0 L201.5,151.0 L201.5,152.0 L203.5,154.0 L203.5,155.0 L205.5,157.0 L209.5,164.0 L212.5,167.0 L212.5,168.0 L214.5,170.0 L214.5,171.0 L216.5,173.0 L216.5,174.0 L218.5,176.0 L218.5,177.0 L220.5,179.0 L220.5,180.0 L222.5,182.0 L222.5,183.0 L224.5,185.0 L224.5,186.0 L226.5,188.0 L226.5,189.0 L228.5,191.0 L232.5,198.0 L235.5,201.0 L235.5,202.0 L237.5,204.0 L237.5,205.0 L239.5,207.0 L239.5,208.0 L241.5,210.0 L241.5,211.0 L243.5,213.0 L243.5,214.0 L250.5,224.0 L250.5,227.0 L251.5,228.0 L251.5,308.0 L250.5,309.0 L250.5,311.0 L249.5,312.0 L248.5,316.0 L245.0,319.5 L241.0,321.5 L239.0,321.5 L238.0,322.5 Z" fill="url(#panel)" filter="url(#shadow)"/>

  <!-- Small square -->
  <path d="M334.0,174.5 L261.0,174.5 L255.0,171.5 L251.5,168.0 L250.5,164.0 L249.5,163.0 L249.5,161.0 L248.5,160.0 L248.5,90.0 L249.5,89.0 L249.5,86.0 L255.0,79.5 L261.0,76.5 L334.0,76.5 L340.0,79.5 L344.5,84.0 L345.5,88.0 L346.5,89.0 L346.5,161.0 L345.5,162.0 L344.5,167.0 L339.0,172.5 L335.0,173.5 L334.0,174.5 Z" fill="url(#panel)" filter="url(#shadow)"/>
</svg>
