<svg width="591" height="393" viewBox="0 0 591 393" fill="none" xmlns="http://www.w3.org/2000/svg">
<rect x="-1.5" y="1.5" width="392" height="192" rx="96" transform="matrix(-1 -8.74228e-08 -8.74228e-08 1 587.002 196.999)" stroke="#101010" stroke-width="3"/>
<path d="M400.016 295.369C400.016 347.957 442.331 390.57 494.506 390.57C546.681 390.57 588.996 347.957 588.996 295.369C588.996 242.78 546.681 200.167 494.506 200.167C442.331 200.167 400.016 242.78 400.016 295.369Z" stroke="#101010" stroke-width="3"/>
<path d="M496.002 391.998L496.002 197.998" stroke="#101010" stroke-width="3"/>
<rect x="-1.5" y="-1.5" width="387" height="192" rx="96" transform="matrix(7.54979e-08 -1 -1 -7.54979e-08 192 387)" fill="#101010" stroke="#101010" stroke-width="3"/>
<path d="M195 293.299C195 280.6 192.481 268.025 187.585 256.293C182.69 244.56 175.515 233.9 166.469 224.921C157.423 215.941 146.685 208.818 134.866 203.958C123.048 199.099 110.381 196.597 97.5881 196.597C84.7958 196.597 72.1286 199.099 60.31 203.958C48.4914 208.818 37.7528 215.941 28.7072 224.921C19.6616 233.9 12.4863 244.56 7.59085 256.293C2.69542 268.025 0.17578 280.6 0.175781 293.299L97.5881 293.299L195 293.299Z" fill="#F8F8F8"/>
<circle r="96.5357" transform="matrix(1 0 0 -1 493.538 100.535)" fill="#B19BFD"/>
<path d="M459.011 133.653L526.656 66.0074" stroke="#F8F8F8" stroke-width="4" stroke-linecap="round" stroke-linejoin="round"/>
<path d="M526.656 129.784L526.656 66.0073L462.88 66.0073" stroke="#F8F8F8" stroke-width="4" stroke-linecap="round" stroke-linejoin="round"/>
<path d="M195 197.245L396.935 0.998259L396.935 197.245L195 197.245Z" fill="#FF7B43"/>
</svg>
