<svg width="658" height="586" viewBox="0 0 658 586" fill="none" xmlns="http://www.w3.org/2000/svg">
<rect y="391" width="461" height="195" rx="97.5" fill="#FF7B43"/>
<ellipse cx="96" cy="489" rx="78" ry="79" fill="#F8F8F8"/>
<path d="M324.378 391.435L122.25 195L122.25 391.435L324.378 391.435Z" fill="#F8F8F8"/>
<circle r="97.5053" transform="matrix(-1 0 0 1 365.505 97.5053)" fill="#FF7B43"/>
<path d="M332.418 133.749L401.242 64.9258" stroke="#F8F8F8" stroke-width="3.00286" stroke-linecap="round" stroke-linejoin="round"/>
<path d="M336.354 64.9258L401.242 64.9258L401.242 129.813" stroke="#F8F8F8" stroke-width="3.00286" stroke-linecap="round" stroke-linejoin="round"/>
<circle r="96.7156" transform="matrix(-1 0 0 1 364.604 293.217)" fill="#101010" stroke="#101010" stroke-width="3.00286"/>
<circle r="42.2302" transform="matrix(-1 0 0 1 364.604 293.217)" stroke="white" stroke-width="3.00286"/>
<path d="M461.998 586L657.998 390H461.998L461.998 586Z" fill="#F8F8F8"/>
<rect x="1.5" y="1.5" width="387" height="192" rx="96" transform="matrix(-4.37114e-08 1 1 4.37114e-08 463 6.55671e-08)" stroke="#F8F8F8" stroke-width="3"/>
<mask id="path-11-inside-1_2759_22379" fill="white">
<path d="M463 96.7013C463 109.4 465.519 121.975 470.415 133.707C475.31 145.44 482.485 156.1 491.531 165.079C500.577 174.059 511.315 181.182 523.134 186.042C534.952 190.901 547.62 193.403 560.412 193.403C573.204 193.403 585.871 190.901 597.69 186.042C609.509 181.182 620.247 174.059 629.293 165.079C638.338 156.1 645.514 145.44 650.409 133.707C655.305 121.975 657.824 109.4 657.824 96.7013L560.412 96.7013L463 96.7013Z"/>
</mask>
<path d="M463 96.7013C463 109.4 465.519 121.975 470.415 133.707C475.31 145.44 482.485 156.1 491.531 165.079C500.577 174.059 511.315 181.182 523.134 186.042C534.952 190.901 547.62 193.403 560.412 193.403C573.204 193.403 585.871 190.901 597.69 186.042C609.509 181.182 620.247 174.059 629.293 165.079C638.338 156.1 645.514 145.44 650.409 133.707C655.305 121.975 657.824 109.4 657.824 96.7013L560.412 96.7013L463 96.7013Z" stroke="#F8F8F8" stroke-width="6" mask="url(#path-11-inside-1_2759_22379)"/>
</svg>
