<svg width="79" height="20" viewBox="0 0 79 20" fill="none" xmlns="http://www.w3.org/2000/svg">
<path d="M2.97709 2.63632L7.56228 15.3053L12.1257 2.63632H14.8421L9.0617 17.9999H5.99766L0.195557 2.63632H2.97709Z" fill="white"/>
<path d="M22.6994 16.5875C22.3228 17.1235 21.823 17.5219 21.2 17.7826C20.5771 18.0289 19.8817 18.1521 19.1139 18.1521C18.5054 18.1521 17.9476 18.0796 17.4406 17.9348C16.948 17.7899 16.5134 17.5726 16.1367 17.2828C15.7601 16.9786 15.4631 16.6092 15.2458 16.1746C15.0285 15.7255 14.9198 15.2184 14.9198 14.6534C14.9198 14.0305 15.043 13.5017 15.2893 13.0671C15.5355 12.618 15.8687 12.2558 16.2889 11.9805C16.7235 11.7053 17.2305 11.5025 17.81 11.3721C18.3895 11.2272 18.998 11.1548 19.6354 11.1548H22.569C22.569 10.3145 22.3807 9.66259 22.004 9.199C21.6274 8.73541 20.9682 8.49637 20.0266 8.48189C19.476 8.48189 18.998 8.57605 18.5923 8.76439C18.2012 8.95272 17.9404 9.26419 17.81 9.69881H15.2675C15.3544 9.09035 15.55 8.57605 15.8542 8.15592C16.173 7.7358 16.5496 7.38811 16.9842 7.11285C17.4334 6.83759 17.9259 6.64202 18.4619 6.52612C19.0125 6.41022 19.563 6.35227 20.1135 6.35227C20.8233 6.35227 21.4825 6.44644 22.091 6.63477C22.6994 6.82311 23.2282 7.14182 23.6773 7.59093C24.1844 8.11246 24.5248 8.73541 24.6987 9.45977C24.8725 10.1841 24.9594 10.9737 24.9594 11.8284V17.9999H22.8081L22.6994 16.5875ZM22.569 12.915H20.1787C19.7585 12.915 19.3384 12.9512 18.9183 13.0236C18.4982 13.0816 18.136 13.2337 17.8317 13.48C17.542 13.7118 17.3971 14.0522 17.3971 14.5013C17.3971 15.0518 17.5927 15.4719 17.9839 15.7617C18.3895 16.0369 18.8821 16.1746 19.4616 16.1746C19.9107 16.1746 20.3235 16.1166 20.7002 16.0007C21.0914 15.8848 21.4246 15.6965 21.6998 15.4357C21.9751 15.1605 22.1851 14.82 22.33 14.4144C22.4894 13.9942 22.569 13.4944 22.569 12.915Z" fill="white"/>
<path d="M27.6194 17.9999V2.63632H30.0967V17.9999H27.6194Z" fill="white"/>
<path d="M36.9915 8.41669C36.7742 8.41669 36.5424 8.43118 36.2961 8.46016C36.0643 8.48913 35.8397 8.55432 35.6224 8.65573C35.4196 8.74265 35.2458 8.87304 35.1009 9.04688C34.9705 9.22073 34.9053 9.44528 34.9053 9.72054C34.9053 10.0248 35.0067 10.2638 35.2095 10.4377C35.4269 10.6115 35.6804 10.7564 35.9701 10.8723C36.2599 10.9737 36.5641 11.0606 36.8828 11.133C37.216 11.191 37.4985 11.2417 37.7303 11.2852C38.3533 11.4155 38.911 11.5532 39.4036 11.698C39.9106 11.8429 40.338 12.0385 40.6857 12.2848C41.0334 12.5166 41.3014 12.8208 41.4897 13.1975C41.6925 13.5741 41.794 14.0667 41.794 14.6751C41.794 15.3271 41.6563 15.8776 41.3811 16.3267C41.1203 16.7758 40.7726 17.138 40.338 17.4132C39.9179 17.674 39.4326 17.8623 38.882 17.9782C38.346 18.0941 37.7883 18.1521 37.2088 18.1521C36.6293 18.1521 36.057 18.0941 35.492 17.9782C34.927 17.8623 34.4055 17.6667 33.9274 17.3915C33.4638 17.1162 33.0727 16.7541 32.754 16.305C32.4497 15.8414 32.2614 15.2836 32.189 14.6317H34.688C34.746 14.9214 34.8691 15.1605 35.0574 15.3488C35.2458 15.5371 35.4631 15.6892 35.7094 15.8051C35.9701 15.921 36.2381 16.0007 36.5134 16.0442C36.7886 16.0876 37.0422 16.1094 37.274 16.1094C37.4478 16.1094 37.6579 16.0949 37.9042 16.0659C38.1649 16.0369 38.404 15.9717 38.6213 15.8703C38.8386 15.7689 39.0197 15.6385 39.1645 15.4792C39.3239 15.3053 39.4036 15.088 39.4036 14.8273C39.4036 14.581 39.3456 14.3782 39.2297 14.2188C39.1138 14.045 38.9545 13.9001 38.7517 13.7842C38.5633 13.6683 38.3315 13.5814 38.0563 13.5234C37.781 13.451 37.4913 13.3785 37.187 13.3061C36.709 13.2192 36.1947 13.1105 35.6442 12.9801C35.1081 12.8498 34.6011 12.6832 34.123 12.4803C33.6594 12.263 33.2755 11.9443 32.9713 11.5242C32.667 11.1041 32.5149 10.568 32.5149 9.91611C32.5149 9.22073 32.6526 8.64849 32.9278 8.19939C33.2031 7.75028 33.558 7.38811 33.9926 7.11285C34.4272 6.82311 34.9126 6.62753 35.4486 6.52612C35.9846 6.41022 36.5134 6.35227 37.0349 6.35227C38.2953 6.35227 39.3239 6.64202 40.1207 7.2215C40.932 7.80099 41.3738 8.64124 41.4463 9.74227H39.1211C39.0486 9.27868 38.8096 8.95272 38.404 8.76439C38.0128 8.56157 37.542 8.44567 36.9915 8.41669Z" fill="white"/>
<path d="M47.1175 6.54785H50.0077V8.69919H47.1175V13.9363C47.1175 14.5882 47.2334 15.0735 47.4652 15.3923C47.697 15.711 48.1388 15.8703 48.7907 15.8703H49.9207V17.9999H48.5734C47.1682 17.9999 46.1613 17.7102 45.5529 17.1307C44.9589 16.5512 44.6619 15.6023 44.6619 14.284V8.69919H42.8583V6.54785H44.6619V3.30997H47.1175V6.54785Z" fill="white"/>
<path d="M51.8755 17.9999V6.54785H54.2007L54.3311 8.17766C55.2148 6.96073 56.4172 6.35227 57.9384 6.35227C58.0832 6.35227 58.2209 6.35952 58.3513 6.374C58.4961 6.374 58.6265 6.38125 58.7424 6.39573V8.69919C58.5686 8.69919 58.3947 8.70644 58.2209 8.72092C58.0615 8.72092 57.9021 8.72092 57.7428 8.72092C57.1054 8.73541 56.5693 8.85131 56.1347 9.06862C55.7146 9.27144 55.3669 9.54669 55.0916 9.89438C54.8309 10.2421 54.6425 10.655 54.5266 11.133C54.4107 11.5966 54.3528 12.0964 54.3528 12.6325V17.9999H51.8755Z" fill="white"/>
<path d="M61.7553 1.78882C62.2044 1.78882 62.5739 1.92645 62.8636 2.2017C63.1678 2.47696 63.32 2.85363 63.32 3.3317C63.32 3.79529 63.1678 4.16471 62.8636 4.43997C62.5739 4.71522 62.2044 4.85285 61.7553 4.85285C61.2773 4.85285 60.8934 4.71522 60.6036 4.43997C60.3139 4.16471 60.169 3.79529 60.169 3.3317C60.169 2.85363 60.3139 2.47696 60.6036 2.2017C60.8934 1.92645 61.2773 1.78882 61.7553 1.78882ZM60.495 17.9999V6.54785H62.9723V17.9999H60.495Z" fill="white"/>
<path d="M76.6828 17.9999H74.3576L74.2272 16.4136C73.8071 17.0221 73.2783 17.4567 72.6409 17.7174C72.0035 17.9782 71.2863 18.1231 70.4896 18.1521C69.6058 18.1376 68.8453 17.9782 68.2078 17.674C67.5704 17.3553 67.0416 16.9351 66.6215 16.4136C66.2014 15.8776 65.8899 15.2619 65.6871 14.5665C65.4987 13.8711 65.4046 13.1323 65.4046 12.35C65.4046 11.4952 65.5132 10.7057 65.7305 9.98131C65.9623 9.25695 66.3028 8.62676 66.7519 8.09073C67.201 7.55471 67.7515 7.13458 68.4034 6.83035C69.0553 6.51163 69.8159 6.35227 70.6851 6.35227C71.3081 6.35227 71.9383 6.45368 72.5757 6.6565C73.2131 6.85932 73.7564 7.23599 74.2055 7.7865V2.63632H76.6828V17.9999ZM70.9676 8.59054C70.4171 8.59054 69.9463 8.68471 69.5551 8.87304C69.164 9.06137 68.838 9.32214 68.5773 9.65535C68.331 9.98855 68.1499 10.3869 68.034 10.8505C67.9181 11.2996 67.8601 11.785 67.8601 12.3065C67.8601 12.828 67.9181 13.3134 68.034 13.7625C68.1499 14.2116 68.331 14.6027 68.5773 14.9359C68.838 15.2691 69.164 15.5371 69.5551 15.74C69.9608 15.9283 70.4461 16.0225 71.0111 16.0225C71.5471 16.0225 72.0107 15.921 72.4019 15.7182C72.8075 15.5009 73.1407 15.2184 73.4015 14.8707C73.6767 14.523 73.8796 14.1246 74.0099 13.6755C74.1403 13.2264 74.2055 12.7628 74.2055 12.2848C74.2055 11.7777 74.1403 11.2996 74.0099 10.8505C73.894 10.4014 73.7057 10.0175 73.4449 9.69881C73.1842 9.3656 72.851 9.10483 72.4453 8.9165C72.0397 8.71368 71.5471 8.60503 70.9676 8.59054Z" fill="white"/>
</svg>
