<svg width="582" height="393" viewBox="0 0 582 393" fill="none" xmlns="http://www.w3.org/2000/svg">
<rect x="-1.5" y="1.5" width="383" height="192" rx="96" transform="matrix(-1 -8.74228e-08 -8.74228e-08 1 578 197.432)" stroke="#101010" stroke-width="3"/>
<path d="M391.014 295.369C391.014 347.957 433.329 390.57 485.504 390.57C537.679 390.57 579.994 347.957 579.994 295.369C579.994 242.78 537.679 200.167 485.504 200.167C433.329 200.167 391.014 242.78 391.014 295.369Z" stroke="#101010" stroke-width="3"/>
<path d="M487 391.998L487 197.998" stroke="#101010" stroke-width="3"/>
<rect x="1.5" y="1.5" width="387" height="192" rx="96" transform="matrix(-4.37114e-08 1 1 4.37114e-08 0.000488216 6.55671e-08)" fill="#101010" stroke="#101010" stroke-width="3"/>
<path d="M3.0738e-06 96.7013C3.47745e-06 109.4 2.51965 121.975 7.41508 133.707C12.3105 145.44 19.4859 156.1 28.5314 165.079C37.577 174.059 48.3157 181.182 60.1343 186.042C71.9529 190.901 84.62 193.403 97.4124 193.403C110.205 193.403 122.872 190.901 134.69 186.042C146.509 181.182 157.248 174.059 166.293 165.079C175.339 156.1 182.514 145.44 187.41 133.707C192.305 121.975 194.825 109.4 194.825 96.7013L97.4124 96.7013L3.0738e-06 96.7013Z" fill="#F8F8F8"/>
<circle r="96.5357" transform="matrix(1 0 0 -1 430.536 100.535)" fill="#B19BFD"/>
<path d="M396.009 133.653L463.655 66.0074" stroke="#F8F8F8" stroke-width="4" stroke-linecap="round" stroke-linejoin="round"/>
<path d="M463.655 129.784L463.655 66.0073L399.878 66.0073" stroke="#F8F8F8" stroke-width="4" stroke-linecap="round" stroke-linejoin="round"/>
<path d="M396.935 197.245L195 0.998136L195 197.245L396.935 197.245Z" fill="#FF7B43"/>
</svg>
