<svg width="107" height="19" viewBox="0 0 107 19" fill="none" xmlns="http://www.w3.org/2000/svg">
<path d="M8.024 3.312C7.128 3.312 6.352 3.48 5.696 3.816C5.056 4.152 4.528 4.6 4.112 5.16C3.696 5.72 3.384 6.376 3.176 7.128C2.984 7.864 2.888 8.64 2.888 9.456C2.888 10.288 2.992 11.08 3.2 11.832C3.408 12.584 3.72 13.248 4.136 13.824C4.568 14.384 5.112 14.832 5.768 15.168C6.424 15.504 7.2 15.672 8.096 15.672C9.2 15.672 10.12 15.432 10.856 14.952C11.608 14.472 12.08 13.824 12.272 13.008H15.056C14.928 13.824 14.656 14.552 14.24 15.192C13.84 15.832 13.336 16.376 12.728 16.824C12.12 17.256 11.416 17.592 10.616 17.832C9.816 18.056 8.96 18.168 8.048 18.168C6.72 18.168 5.552 17.952 4.544 17.52C3.552 17.088 2.72 16.488 2.048 15.72C1.376 14.952 0.872 14.04 0.536 12.984C0.2 11.928 0.032 10.768 0.032 9.504C0.032 8.272 0.2 7.128 0.536 6.072C0.888 5 1.4 4.08 2.072 3.312C2.744 2.528 3.576 1.92 4.568 1.488C5.576 1.04 6.744 0.816 8.072 0.816C9.944 0.816 11.488 1.256 12.704 2.136C13.92 3.016 14.656 4.312 14.912 6.024H12.176C11.968 5.192 11.504 4.536 10.784 4.056C10.064 3.56 9.144 3.312 8.024 3.312ZM17.4333 18V5.352H20.0013L20.1453 7.152C21.1213 5.808 22.4493 5.136 24.1293 5.136C24.2893 5.136 24.4413 5.144 24.5853 5.16C24.7453 5.16 24.8893 5.168 25.0173 5.184V7.728C24.8253 7.728 24.6333 7.736 24.4413 7.752C24.2653 7.752 24.0893 7.752 23.9133 7.752C23.2093 7.768 22.6173 7.896 22.1373 8.136C21.6733 8.36 21.2893 8.664 20.9853 9.048C20.6973 9.432 20.4893 9.888 20.3613 10.416C20.2333 10.928 20.1693 11.48 20.1693 12.072V18H17.4333ZM28.8065 12.6C28.8385 13.064 28.9345 13.496 29.0945 13.896C29.2545 14.296 29.4705 14.648 29.7425 14.952C30.0305 15.24 30.3745 15.472 30.7745 15.648C31.1905 15.824 31.6705 15.912 32.2145 15.912C32.7905 15.912 33.3185 15.808 33.7985 15.6C34.2785 15.392 34.6305 15.032 34.8545 14.52H37.6625C37.5025 15.16 37.2385 15.712 36.8705 16.176C36.5185 16.64 36.0945 17.024 35.5985 17.328C35.1185 17.616 34.5825 17.832 33.9905 17.976C33.4145 18.104 32.7985 18.168 32.1425 18.168C31.1345 18.168 30.2465 18.016 29.4785 17.712C28.7265 17.408 28.0945 16.968 27.5825 16.392C27.0705 15.816 26.6865 15.136 26.4305 14.352C26.1905 13.552 26.0705 12.656 26.0705 11.664C26.0705 10.704 26.2065 9.832 26.4785 9.048C26.7505 8.248 27.1425 7.56 27.6545 6.984C28.1825 6.408 28.8145 5.96 29.5505 5.64C30.2865 5.304 31.1265 5.136 32.0705 5.136C33.0625 5.136 33.9185 5.304 34.6385 5.64C35.3585 5.96 35.9585 6.4 36.4385 6.96C36.9345 7.52 37.3025 8.176 37.5425 8.928C37.7825 9.68 37.9025 10.496 37.9025 11.376C37.9025 11.792 37.8785 12.2 37.8305 12.6H28.8065ZM35.2385 10.536C35.2065 9.576 34.9025 8.832 34.3265 8.304C33.7505 7.776 33.0065 7.512 32.0945 7.512C31.5825 7.512 31.1345 7.592 30.7505 7.752C30.3665 7.912 30.0385 8.128 29.7665 8.4C29.5105 8.672 29.3025 8.992 29.1425 9.36C28.9825 9.728 28.8785 10.12 28.8305 10.536H35.2385ZM48.5386 16.44C48.1226 17.032 47.5706 17.472 46.8826 17.76C46.1946 18.032 45.4266 18.168 44.5786 18.168C43.9066 18.168 43.2906 18.088 42.7306 17.928C42.1866 17.768 41.7066 17.528 41.2906 17.208C40.8746 16.872 40.5466 16.464 40.3066 15.984C40.0666 15.488 39.9466 14.928 39.9466 14.304C39.9466 13.616 40.0826 13.032 40.3546 12.552C40.6266 12.056 40.9946 11.656 41.4586 11.352C41.9386 11.048 42.4986 10.824 43.1386 10.68C43.7786 10.52 44.4506 10.44 45.1546 10.44H48.3946C48.3946 9.512 48.1866 8.792 47.7706 8.28C47.3546 7.768 46.6266 7.504 45.5866 7.488C44.9786 7.488 44.4506 7.592 44.0026 7.8C43.5706 8.008 43.2826 8.352 43.1386 8.832H40.3306C40.4266 8.16 40.6426 7.592 40.9786 7.128C41.3306 6.664 41.7466 6.28 42.2266 5.976C42.7226 5.672 43.2666 5.456 43.8586 5.328C44.4666 5.2 45.0746 5.136 45.6826 5.136C46.4666 5.136 47.1946 5.24 47.8666 5.448C48.5386 5.656 49.1226 6.008 49.6186 6.504C50.1786 7.08 50.5546 7.768 50.7466 8.568C50.9386 9.368 51.0346 10.24 51.0346 11.184V18H48.6586L48.5386 16.44ZM48.3946 12.384H45.7546C45.2906 12.384 44.8266 12.424 44.3626 12.504C43.8986 12.568 43.4986 12.736 43.1626 13.008C42.8426 13.264 42.6826 13.64 42.6826 14.136C42.6826 14.744 42.8986 15.208 43.3306 15.528C43.7786 15.832 44.3226 15.984 44.9626 15.984C45.4586 15.984 45.9146 15.92 46.3306 15.792C46.7626 15.664 47.1306 15.456 47.4346 15.168C47.7386 14.864 47.9706 14.488 48.1306 14.04C48.3066 13.576 48.3946 13.024 48.3946 12.384ZM57.7644 5.352H60.9564V7.728H57.7644V13.512C57.7644 14.232 57.8924 14.768 58.1484 15.12C58.4044 15.472 58.8924 15.648 59.6124 15.648H60.8604V18H59.3724C57.8204 18 56.7084 17.68 56.0364 17.04C55.3804 16.4 55.0524 15.352 55.0524 13.896V7.728H53.0604V5.352H55.0524V1.776H57.7644V5.352ZM64.5793 0.0959988C65.0753 0.0959988 65.4833 0.247999 65.8033 0.551999C66.1393 0.855999 66.3073 1.272 66.3073 1.8C66.3073 2.312 66.1393 2.72 65.8033 3.024C65.4833 3.328 65.0753 3.48 64.5793 3.48C64.0513 3.48 63.6273 3.328 63.3073 3.024C62.9873 2.72 62.8273 2.312 62.8273 1.8C62.8273 1.272 62.9873 0.855999 63.3073 0.551999C63.6273 0.247999 64.0513 0.0959988 64.5793 0.0959988ZM63.1873 18V5.352H65.9233V18H63.1873ZM67.6496 5.352H70.6736L74.1776 15.384L77.6576 5.352H80.6816L75.9296 18H72.4016L67.6496 5.352ZM84.4706 12.6C84.5026 13.064 84.5986 13.496 84.7586 13.896C84.9186 14.296 85.1346 14.648 85.4066 14.952C85.6946 15.24 86.0386 15.472 86.4386 15.648C86.8546 15.824 87.3346 15.912 87.8786 15.912C88.4546 15.912 88.9826 15.808 89.4626 15.6C89.9426 15.392 90.2946 15.032 90.5186 14.52H93.3266C93.1666 15.16 92.9026 15.712 92.5346 16.176C92.1826 16.64 91.7586 17.024 91.2626 17.328C90.7826 17.616 90.2466 17.832 89.6546 17.976C89.0786 18.104 88.4626 18.168 87.8066 18.168C86.7986 18.168 85.9106 18.016 85.1426 17.712C84.3906 17.408 83.7586 16.968 83.2466 16.392C82.7346 15.816 82.3506 15.136 82.0946 14.352C81.8546 13.552 81.7346 12.656 81.7346 11.664C81.7346 10.704 81.8706 9.832 82.1426 9.048C82.4146 8.248 82.8066 7.56 83.3186 6.984C83.8466 6.408 84.4786 5.96 85.2146 5.64C85.9506 5.304 86.7906 5.136 87.7346 5.136C88.7266 5.136 89.5826 5.304 90.3026 5.64C91.0226 5.96 91.6226 6.4 92.1026 6.96C92.5986 7.52 92.9666 8.176 93.2066 8.928C93.4466 9.68 93.5666 10.496 93.5666 11.376C93.5666 11.792 93.5426 12.2 93.4946 12.6H84.4706ZM90.9026 10.536C90.8706 9.576 90.5666 8.832 89.9906 8.304C89.4146 7.776 88.6706 7.512 87.7586 7.512C87.2466 7.512 86.7986 7.592 86.4146 7.752C86.0306 7.912 85.7026 8.128 85.4306 8.4C85.1746 8.672 84.9666 8.992 84.8066 9.36C84.6466 9.728 84.5426 10.12 84.4946 10.536H90.9026ZM96.2107 8.256H100.147V4.248H102.475V8.256H106.435V10.608H102.475V14.64H100.147V10.608H96.2107V8.256Z" fill="white"/>
</svg>
