<svg width="288" height="52" viewBox="0 0 288 52" fill="none" xmlns="http://www.w3.org/2000/svg">
<rect x="7.29766" y="7.92559" width="36.3088" height="36.3088" stroke="white" stroke-width="2.04845"/>
<path d="M43.6064 26.08C43.6064 36.1064 35.4785 44.2344 25.4521 44.2344C15.4257 44.2344 7.29766 36.1064 7.29766 26.08C7.29766 16.0536 15.4257 7.92559 25.4521 7.92559C35.4785 7.92559 43.6064 16.0536 43.6064 26.08Z" stroke="white" stroke-width="2.04845"/>
<path d="M12.079 12.707L38.8249 39.453" stroke="white" stroke-width="2.04845"/>
<path d="M38.8251 12.707L12.0791 39.453" stroke="white" stroke-width="2.04845"/>
<path d="M77.4904 14.6531C76.0424 14.679 74.8013 14.9634 73.7671 15.5064C72.7329 16.0493 71.8796 16.7733 71.2074 17.6783C70.561 18.5832 70.0826 19.6433 69.7724 20.8586C69.4621 22.0479 69.3069 23.3149 69.3069 24.6594C69.3069 26.0039 69.4621 27.2838 69.7724 28.499C70.1085 29.6884 70.6127 30.7485 71.2849 31.6793C71.983 32.5843 72.8621 33.3082 73.9222 33.8512C74.9823 34.3683 76.2364 34.6269 77.6843 34.6269C80.0372 34.6269 81.86 34.0193 83.1528 32.804C84.4715 31.5629 85.1567 29.9599 85.2084 27.9948H77.1801V24.194H89.5134C89.5134 25.1765 89.4876 26.172 89.4358 27.1804C89.41 28.1629 89.2678 29.1971 89.0092 30.2831C88.6989 31.4466 88.2465 32.5455 87.6518 33.5797C87.0571 34.5881 86.2943 35.4672 85.3635 36.217C84.4327 36.9668 83.3209 37.5615 82.0281 38.0011C80.7612 38.4406 79.3003 38.6604 77.6455 38.6604C75.4995 38.6604 73.612 38.3243 71.983 37.652C70.38 36.9539 69.0355 35.9843 67.9495 34.7432C66.8636 33.5021 66.0491 32.0284 65.5061 30.3219C64.9631 28.6154 64.6917 26.7537 64.6917 24.737C64.6917 22.6943 64.9631 20.8068 65.5061 19.0745C66.0491 17.3421 66.8506 15.8554 67.9107 14.6143C68.9967 13.3474 70.3412 12.3649 71.9443 11.6668C73.5732 10.9686 75.4607 10.6196 77.6067 10.6196C79.1064 10.6196 80.4897 10.8135 81.7566 11.2013C83.0494 11.5633 84.1871 12.1063 85.1696 12.8303C86.1521 13.5284 86.9666 14.4075 87.613 15.4676C88.2594 16.5018 88.686 17.6912 88.8929 19.0357H84.3551C84.019 17.6653 83.2304 16.5923 81.9893 15.8166C80.7741 15.041 79.2744 14.6531 77.4904 14.6531Z" fill="white"/>
<path d="M93.5697 38.3889V17.9498H97.7196L97.9523 20.8586C99.5295 18.6867 101.676 17.6007 104.39 17.6007C104.649 17.6007 104.895 17.6136 105.127 17.6395C105.386 17.6395 105.619 17.6524 105.825 17.6783V21.7894C105.515 21.7894 105.205 21.8023 104.895 21.8282C104.61 21.8282 104.326 21.8282 104.041 21.8282C102.904 21.854 101.947 22.0609 101.171 22.4487C100.422 22.8107 99.801 23.302 99.3097 23.9225C98.8443 24.543 98.5082 25.2799 98.3013 26.1332C98.0945 26.9606 97.991 27.8526 97.991 28.8093V38.3889H93.5697Z" fill="white"/>
<path d="M121.868 35.868C121.196 36.8246 120.304 37.5357 119.192 38.0011C118.08 38.4406 116.839 38.6604 115.469 38.6604C114.383 38.6604 113.388 38.5311 112.483 38.2726C111.604 38.014 110.828 37.6262 110.156 37.1091C109.483 36.5661 108.953 35.9068 108.565 35.1311C108.178 34.3295 107.984 33.4246 107.984 32.4162C107.984 31.3044 108.203 30.3606 108.643 29.585C109.083 28.7834 109.677 28.137 110.427 27.6458C111.203 27.1545 112.108 26.7925 113.142 26.5598C114.176 26.3012 115.262 26.172 116.4 26.172H121.636C121.636 24.6723 121.3 23.5088 120.627 22.6814C119.955 21.854 118.779 21.4274 117.098 21.4015C116.115 21.4015 115.262 21.5696 114.538 21.9057C113.84 22.2419 113.375 22.7978 113.142 23.5734H108.604C108.759 22.4875 109.108 21.5696 109.651 20.8198C110.22 20.07 110.892 19.4494 111.668 18.9581C112.47 18.4669 113.349 18.1178 114.305 17.911C115.288 17.7041 116.271 17.6007 117.253 17.6007C118.52 17.6007 119.696 17.7688 120.782 18.1049C121.868 18.441 122.812 19.0099 123.614 19.8114C124.519 20.7422 125.126 21.854 125.436 23.1468C125.747 24.4396 125.902 25.8488 125.902 27.3743V38.3889H122.062L121.868 35.868ZM121.636 29.3135H117.369C116.62 29.3135 115.87 29.3781 115.12 29.5074C114.37 29.6108 113.724 29.8823 113.181 30.3219C112.664 30.7356 112.405 31.3432 112.405 32.1447C112.405 33.1272 112.754 33.8771 113.452 34.3942C114.176 34.8854 115.055 35.1311 116.09 35.1311C116.891 35.1311 117.628 35.0276 118.3 34.8208C118.998 34.614 119.593 34.2778 120.084 33.8124C120.576 33.3212 120.95 32.7135 121.209 31.9896C121.493 31.2397 121.636 30.3477 121.636 29.3135Z" fill="white"/>
<path d="M130.649 46.3396V17.9498H134.838L135.071 20.8586C135.872 19.7726 136.855 18.9581 138.018 18.4152C139.182 17.8722 140.436 17.6007 141.78 17.6007C143.177 17.6007 144.431 17.8593 145.542 18.3764C146.654 18.8676 147.598 19.5658 148.374 20.4707C149.175 21.3757 149.77 22.4746 150.158 23.7674C150.571 25.0343 150.778 26.4822 150.778 28.1112C150.778 29.6367 150.584 31.0458 150.196 32.3386C149.809 33.6314 149.227 34.7562 148.451 35.7128C147.701 36.6436 146.758 37.3676 145.62 37.8847C144.508 38.4019 143.202 38.6604 141.703 38.6604C140.41 38.6604 139.182 38.4665 138.018 38.0787C136.881 37.665 135.898 37.0315 135.071 36.1782V46.3396H130.649ZM140.849 34.8208C141.806 34.8208 142.634 34.6527 143.332 34.3166C144.03 33.9546 144.599 33.4763 145.038 32.8816C145.504 32.2869 145.84 31.5888 146.047 30.7873C146.279 29.9857 146.396 29.1196 146.396 28.1887C146.396 27.2579 146.279 26.3917 146.047 25.5902C145.84 24.7628 145.504 24.0518 145.038 23.4571C144.599 22.8624 144.017 22.397 143.293 22.0609C142.595 21.7247 141.754 21.5567 140.772 21.5567C139.815 21.5567 138.988 21.7377 138.29 22.0996C137.592 22.4616 136.997 22.94 136.506 23.5347C136.014 24.1293 135.64 24.8404 135.381 25.6678C135.148 26.4693 135.032 27.2967 135.032 28.15C135.032 30.0374 135.523 31.6147 136.506 32.8816C137.488 34.1485 138.936 34.7949 140.849 34.8208Z" fill="white"/>
<path d="M154.814 38.3889V10.9686H159.235V20.781C159.959 19.695 160.89 18.8806 162.027 18.3376C163.191 17.7946 164.406 17.5231 165.673 17.5231C167.121 17.5231 168.336 17.7688 169.319 18.26C170.327 18.7513 171.142 19.4236 171.762 20.2768C172.409 21.1042 172.861 22.0996 173.12 23.2632C173.404 24.4267 173.546 25.7066 173.546 27.1028V38.3889H169.125V27.8009C169.125 26.9218 169.06 26.1073 168.931 25.3575C168.802 24.5818 168.569 23.9096 168.233 23.3407C167.897 22.746 167.418 22.2806 166.798 21.9445C166.177 21.6084 165.389 21.4403 164.432 21.4403C163.605 21.4403 162.829 21.6601 162.105 22.0996C161.381 22.5133 160.799 23.0692 160.36 23.7674C159.946 24.4655 159.649 25.2153 159.468 26.0168C159.312 26.7925 159.235 27.5553 159.235 28.3051V38.3889H154.814Z" fill="white"/>
<path d="M180.741 9.45606C181.543 9.45606 182.202 9.70169 182.719 10.193C183.262 10.6842 183.534 11.3565 183.534 12.2097C183.534 13.0371 183.262 13.6964 182.719 14.1877C182.202 14.679 181.543 14.9246 180.741 14.9246C179.888 14.9246 179.203 14.679 178.686 14.1877C178.169 13.6964 177.91 13.0371 177.91 12.2097C177.91 11.3565 178.169 10.6842 178.686 10.193C179.203 9.70169 179.888 9.45606 180.741 9.45606ZM178.492 38.3889V17.9498H182.913V38.3889H178.492Z" fill="white"/>
<path d="M197.028 38.6604C195.373 38.6604 193.938 38.4148 192.723 37.9235C191.508 37.4064 190.486 36.6954 189.659 35.7904C188.857 34.8596 188.25 33.7607 187.836 32.4938C187.448 31.201 187.254 29.7789 187.254 28.2275C187.254 26.6762 187.461 25.2541 187.875 23.9613C188.314 22.6685 188.961 21.5567 189.814 20.6259C190.667 19.695 191.701 18.9581 192.917 18.4152C194.132 17.8722 195.541 17.6007 197.144 17.6007C199.497 17.6007 201.449 18.1437 203.001 19.2296C204.552 20.2897 205.534 21.9833 205.948 24.3103H201.41C201.178 23.4054 200.674 22.7202 199.898 22.2548C199.122 21.7894 198.178 21.5567 197.067 21.5567C196.084 21.5567 195.244 21.7377 194.546 22.0996C193.848 22.4616 193.279 22.9529 192.839 23.5734C192.4 24.194 192.076 24.918 191.87 25.7453C191.689 26.5469 191.598 27.3872 191.598 28.2663C191.598 29.1713 191.701 30.0245 191.908 30.826C192.115 31.6276 192.438 32.3257 192.878 32.9204C193.317 33.4892 193.886 33.9546 194.584 34.3166C195.283 34.6527 196.123 34.8208 197.105 34.8208C198.269 34.8208 199.226 34.5622 199.975 34.0451C200.751 33.528 201.242 32.8428 201.449 31.9896H206.026C205.819 33.1531 205.431 34.1615 204.862 35.0147C204.319 35.868 203.647 36.5661 202.845 37.1091C202.044 37.652 201.152 38.0528 200.169 38.3114C199.187 38.5441 198.14 38.6604 197.028 38.6604Z" fill="white"/>
<path d="M211.33 38.3889V21.7894H208.072V17.9498H211.33V15.5452C211.33 13.2698 211.86 11.6021 212.92 10.542C214.006 9.45606 215.738 8.91309 218.117 8.91309H220.909V12.7527H218.388C217.302 12.7527 216.578 13.0371 216.216 13.606C215.855 14.1748 215.674 14.9892 215.674 16.0493V17.9498H220.909V21.7894H215.674V38.3889H211.33Z" fill="white"/>
<path d="M232.786 17.6007C234.415 17.6007 235.85 17.8593 237.091 18.3764C238.332 18.8935 239.38 19.6175 240.233 20.5483C241.112 21.4532 241.771 22.5521 242.211 23.8449C242.65 25.1377 242.87 26.5727 242.87 28.15C242.87 29.753 242.65 31.201 242.211 32.4938C241.797 33.7607 241.164 34.8596 240.31 35.7904C239.457 36.7212 238.397 37.4323 237.13 37.9235C235.889 38.4148 234.441 38.6604 232.786 38.6604C231.157 38.6604 229.722 38.4148 228.481 37.9235C227.24 37.4064 226.193 36.6954 225.34 35.7904C224.512 34.8596 223.879 33.7478 223.439 32.455C223.026 31.1622 222.819 29.7272 222.819 28.15C222.819 26.5727 223.026 25.1377 223.439 23.8449C223.879 22.5521 224.525 21.4532 225.379 20.5483C226.232 19.6175 227.279 18.8935 228.52 18.3764C229.761 17.8593 231.183 17.6007 232.786 17.6007ZM232.786 34.8208C233.795 34.8208 234.648 34.6527 235.346 34.3166C236.07 33.9546 236.652 33.4763 237.091 32.8816C237.557 32.2869 237.893 31.5888 238.1 30.7873C238.332 29.9857 238.449 29.1196 238.449 28.1887C238.449 27.2579 238.332 26.3917 238.1 25.5902C237.893 24.7628 237.557 24.0518 237.091 23.4571C236.652 22.8624 236.07 22.397 235.346 22.0609C234.648 21.7247 233.795 21.5567 232.786 21.5567C231.804 21.5567 230.964 21.7247 230.265 22.0609C229.567 22.397 228.986 22.8624 228.52 23.4571C228.055 24.0518 227.706 24.7628 227.473 25.5902C227.266 26.3917 227.163 27.2579 227.163 28.1887C227.163 29.1196 227.266 29.9857 227.473 30.7873C227.706 31.5888 228.042 32.2869 228.481 32.8816C228.947 33.4763 229.528 33.9546 230.227 34.3166C230.951 34.6527 231.804 34.8208 232.786 34.8208Z" fill="white"/>
<path d="M246.888 38.3889V10.9686H251.309V38.3889H246.888Z" fill="white"/>
<path d="M258.65 9.45606C259.452 9.45606 260.111 9.70169 260.628 10.193C261.171 10.6842 261.443 11.3565 261.443 12.2097C261.443 13.0371 261.171 13.6964 260.628 14.1877C260.111 14.679 259.452 14.9246 258.65 14.9246C257.797 14.9246 257.112 14.679 256.595 14.1877C256.077 13.6964 255.819 13.0371 255.819 12.2097C255.819 11.3565 256.077 10.6842 256.595 10.193C257.112 9.70169 257.797 9.45606 258.65 9.45606ZM256.401 38.3889V17.9498H260.822V38.3889H256.401Z" fill="white"/>
<path d="M275.131 17.6007C276.76 17.6007 278.195 17.8593 279.436 18.3764C280.677 18.8935 281.724 19.6175 282.577 20.5483C283.456 21.4532 284.116 22.5521 284.555 23.8449C284.995 25.1377 285.214 26.5727 285.214 28.15C285.214 29.753 284.995 31.201 284.555 32.4938C284.141 33.7607 283.508 34.8596 282.655 35.7904C281.801 36.7212 280.741 37.4323 279.474 37.9235C278.233 38.4148 276.785 38.6604 275.131 38.6604C273.502 38.6604 272.067 38.4148 270.826 37.9235C269.585 37.4064 268.537 36.6954 267.684 35.7904C266.857 34.8596 266.223 33.7478 265.784 32.455C265.37 31.1622 265.163 29.7272 265.163 28.15C265.163 26.5727 265.37 25.1377 265.784 23.8449C266.223 22.5521 266.87 21.4532 267.723 20.5483C268.576 19.6175 269.623 18.8935 270.864 18.3764C272.105 17.8593 273.528 17.6007 275.131 17.6007ZM275.131 34.8208C276.139 34.8208 276.992 34.6527 277.69 34.3166C278.414 33.9546 278.996 33.4763 279.436 32.8816C279.901 32.2869 280.237 31.5888 280.444 30.7873C280.677 29.9857 280.793 29.1196 280.793 28.1887C280.793 27.2579 280.677 26.3917 280.444 25.5902C280.237 24.7628 279.901 24.0518 279.436 23.4571C278.996 22.8624 278.414 22.397 277.69 22.0609C276.992 21.7247 276.139 21.5567 275.131 21.5567C274.148 21.5567 273.308 21.7247 272.61 22.0609C271.912 22.397 271.33 22.8624 270.864 23.4571C270.399 24.0518 270.05 24.7628 269.817 25.5902C269.61 26.3917 269.507 27.2579 269.507 28.1887C269.507 29.1196 269.61 29.9857 269.817 30.7873C270.05 31.5888 270.386 32.2869 270.826 32.8816C271.291 33.4763 271.873 33.9546 272.571 34.3166C273.295 34.6527 274.148 34.8208 275.131 34.8208Z" fill="white"/>
</svg>
